# xmcd
#
# Track frame offsets:
#	150
#	22277
#	37442
#	66725
#	82573
#	93854
#	111717
#	135579
#	153153
#	171744
#	193832
#	213988
#	233872
#	252560
#	270885
#
# Disc length: 3911 seconds
#
# Revision: 1
# Processed by: cddbd v1.5.1PL2 Copyright (c) Steve Scherf et al.
# Submitted via: audiograbber 1.83.01
#
DISCID=e10f450f
DTITLE=Various Artist - HCK03
DYEAR=1900
DGENRE=Karaoke
TTITLE0=Henley, Don - Boys Of Summer
TTITLE1=Paycheck, Johnny - I'm The Only Hell My Mama Ever Raised
TTITLE2=Henley, Don - New York Minute
TTITLE3=Ozark Mountain Daredevils - You Know Like I Know
TTITLE4=Friedman, Kinky and Texas Jewboys - Asshole From El Paso
TTITLE5=Richey, Kim - Those Words We Said
TTITLE6=Henley, Don - End of the Innocence
TTITLE7=Ben Folds Five - Song For The Dumped
TTITLE8=Hanson, Jennifer - Beautiful Goodbye -  HANSON
TTITLE9=Marshall, Amanda - Beautiful Goodbye - MARSHALL
TTITLE10=Marshall, Amanda - Everybody's Got A Story
TTITLE11=Marshall, Amanda - Believe In You
TTITLE12=Coe, David Alan - Jimmy Buffett Don't Live In Key West Anymore
TTITLE13=Simply Red - You've Got It
TTITLE14=Simply Red - It's Only Love
EXTD=
EXTT0=
EXTT1=
EXTT2=
EXTT3=
EXTT4=
EXTT5=
EXTT6=
EXTT7=
EXTT8=
EXTT9=
EXTT10=
EXTT11=
EXTT12=
EXTT13=
EXTT14=
PLAYORDER=
